<?xml version="1.0" encoding="UTF-8"?>
<svg xmlns="http://www.w3.org/2000/svg" xmlns:xlink="http://www.w3.org/1999/xlink" width="46px" height="46px" viewBox="0 0 46 46" version="1.1">
<defs>
<linearGradient id="linear0" gradientUnits="userSpaceOnUse" x1="-566.7114" y1="516.5693" x2="-493.2875" y2="621.4296" gradientTransform="matrix(0.359375,0,0,-0.359375,213.46875,227.484375)">
<stop offset="0" style="stop-color:rgb(100%,72.54902%,0%);stop-opacity:1;"/>
<stop offset="1" style="stop-color:rgb(56.862745%,0%,92.156863%);stop-opacity:1;"/>
</linearGradient>
</defs>
<g id="surface1">
<path style=" stroke:none;fill-rule:nonzero;fill:url(#linear0);" d="M 46 23 C 46 35.703125 35.703125 46 23 46 C 10.296875 46 0 35.703125 0 23 C 0 10.296875 10.296875 0 23 0 C 35.703125 0 46 10.296875 46 23 Z M 46 23 "/>
<path style=" stroke:none;fill-rule:nonzero;fill:rgb(100%,100%,100%);fill-opacity:1;" d="M 29.589844 37.375 L 16.410156 37.375 C 12.117188 37.375 8.625 33.882812 8.625 29.589844 L 8.625 16.410156 C 8.625 12.117188 12.117188 8.625 16.410156 8.625 L 29.589844 8.625 C 33.882812 8.625 37.375 12.117188 37.375 16.410156 L 37.375 29.589844 C 37.375 33.882812 33.882812 37.375 29.589844 37.375 Z M 16.410156 11.019531 C 13.4375 11.019531 11.019531 13.4375 11.019531 16.410156 L 11.019531 29.589844 C 11.019531 32.5625 13.4375 34.980469 16.410156 34.980469 L 29.589844 34.980469 C 32.5625 34.980469 34.980469 32.5625 34.980469 29.589844 L 34.980469 16.410156 C 34.980469 13.4375 32.5625 11.019531 29.589844 11.019531 Z M 16.410156 11.019531 "/>
<path style=" stroke:none;fill-rule:nonzero;fill:rgb(100%,100%,100%);fill-opacity:1;" d="M 23 30.1875 C 19.035156 30.1875 15.8125 26.960938 15.8125 23 C 15.8125 19.035156 19.035156 15.8125 23 15.8125 C 26.964844 15.8125 30.1875 19.035156 30.1875 23 C 30.1875 26.960938 26.964844 30.1875 23 30.1875 Z M 23 18.207031 C 20.359375 18.207031 18.207031 20.359375 18.207031 23 C 18.207031 25.640625 20.359375 27.792969 23 27.792969 C 25.640625 27.792969 27.792969 25.640625 27.792969 23 C 27.792969 20.359375 25.640625 18.207031 23 18.207031 Z M 23 18.207031 "/>
<path style=" stroke:none;fill-rule:nonzero;fill:rgb(100%,100%,100%);fill-opacity:1;" d="M 32.285156 15.363281 C 32.285156 16.273438 31.546875 17.011719 30.636719 17.011719 C 29.726562 17.011719 28.988281 16.273438 28.988281 15.363281 C 28.988281 14.453125 29.726562 13.714844 30.636719 13.714844 C 31.546875 13.714844 32.285156 14.453125 32.285156 15.363281 Z M 32.285156 15.363281 "/>
</g>
</svg>
